<?xml version="1.0" standalone="no"?>
<!DOCTYPE svg PUBLIC "-//W3C//DTD SVG 20010904//EN"
 "http://www.w3.org/TR/2001/REC-SVG-20010904/DTD/svg10.dtd">
<svg version="1.0" xmlns="http://www.w3.org/2000/svg"
 width="512.000000pt" height="512.000000pt" viewBox="0 0 512.000000 512.000000"
 preserveAspectRatio="xMidYMid meet">

<g transform="translate(0.000000,512.000000) scale(0.100000,-0.100000)"
fill="#ffffff" stroke="none">
<path d="M1825 4584 c-399 -40 -738 -260 -933 -605 -157 -277 -186 -653 -76
-961 257 -714 1117 -1001 1751 -583 116 77 271 235 341 348 116 187 171 362
179 578 9 217 -25 386 -115 569 -157 321 -454 554 -804 629 -93 20 -267 32
-343 25z"/>
<path d="M3590 3620 c-102 -20 -171 -101 -172 -204 -1 -85 21 -118 182 -281
l150 -151 -146 -144 c-80 -80 -155 -163 -167 -185 -41 -78 -21 -191 45 -252
55 -51 166 -69 231 -37 18 9 100 84 184 167 l152 151 158 -156 c175 -171 195
-183 293 -176 105 8 180 83 188 188 7 98 -5 119 -176 293 l-156 158 152 152
c93 93 157 166 167 189 34 83 6 193 -62 245 -67 51 -164 60 -238 20 -16 -8
-95 -81 -175 -161 l-144 -145 -156 153 c-152 150 -172 165 -250 179 -14 2 -41
1 -60 -3z"/>
<path d="M891 2374 c-81 -55 -213 -185 -269 -267 -95 -138 -157 -290 -182
-447 -8 -51 -10 -181 -8 -400 3 -302 5 -330 26 -390 64 -193 226 -352 417
-413 l70 -22 975 0 975 0 70 22 c191 61 353 220 417 413 21 61 23 87 26 397 3
274 0 348 -13 419 -41 221 -147 416 -309 572 -80 76 -180 152 -201 152 -5 0
-37 -23 -70 -52 -350 -301 -837 -404 -1290 -273 -166 48 -364 156 -500 273
-33 29 -65 52 -70 52 -6 0 -35 -16 -64 -36z"/>
</g>
</svg>
